<?xml version="1.0" encoding="iso-8859-1"?>
<!-- Generator: Adobe Illustrator 16.0.0, SVG Export Plug-In . SVG Version: 6.00 Build 0)  -->
<!DOCTYPE svg PUBLIC "-//W3C//DTD SVG 1.1//EN" "http://www.w3.org/Graphics/SVG/1.1/DTD/svg11.dtd">
<svg version="1.1" id="Capa_1" xmlns="http://www.w3.org/2000/svg" xmlns:xlink="http://www.w3.org/1999/xlink" x="0px" y="0px"
	 width="600px" height="600px" viewBox="100 0 600 600" style="enable-background:new 100 0 600 600;" xml:space="preserve">
<path d="M690.426,0H109.575C104.287,0,100,4.287,100,9.574v93.682c0,1.089,0.187,2.169,0.549,3.195
	c8.962,25.316,31.413,43.205,57.536,46.76v143.072h-14.042c-5.288,0-9.574,4.287-9.574,9.575v173.423
	c0,5.288,4.287,9.574,9.574,9.574h19.446C168.386,550.961,220.488,600,283.83,600c66.566,0,120.72-54.154,120.72-120.72
	S350.396,358.56,283.83,358.56c-63.342,0-115.444,49.04-120.341,111.146h-9.872V315.432h394.186c0.029,0,41.69,0,41.69,0v154.273
	h-156.22c-5.288,0-9.575,4.287-9.575,9.575c0,5.287,4.287,9.574,9.575,9.574h73.322v101.571c0,5.287,4.287,9.574,9.574,9.574
	c5.288,0,9.574-4.287,9.574-9.574V488.854h73.323c5.287,0,9.574-4.287,9.574-9.574V315.432h47.315c5.288,0,9.575-4.287,9.575-9.574
	c0-5.288-4.287-9.575-9.575-9.575h-97.808l4.909-63.596c0.203-2.626-0.689-5.216-2.456-7.165l2.457-32.027
	c0.204-2.659-0.71-5.283-2.522-7.238c-1.812-1.956-4.358-3.068-7.024-3.068h-74.685c-2.666,0-5.212,1.112-7.023,3.068
	c-1.812,1.957-2.726,4.58-2.522,7.238l2.457,32.027c-1.767,1.95-2.659,4.539-2.456,7.165l4.908,63.596h-64.617v-143.08
	c19.632-2.673,37.194-13.429,48.511-29.363c13.13,18.489,34.66,30.033,58.085,30.033c23.426,0,44.955-11.544,58.085-30.033
	c13.13,18.489,34.66,30.033,58.086,30.033c30.1,0,57.068-19.057,67.11-47.42c0.363-1.026,0.549-2.106,0.549-3.195V9.574
	C700,4.287,695.713,0,690.426,0z M283.83,377.709c56.007,0,101.571,45.564,101.571,101.571S339.836,580.852,283.83,580.852
	S182.259,535.287,182.259,479.28S227.823,377.709,283.83,377.709z M332.34,101.52c-7.733,19.922-27.028,33.204-48.511,33.204
	c-21.482,0-40.777-13.28-48.51-33.204V19.149h97.021V101.52z M119.149,101.539v-82.39h97.021v82.371
	c-7.734,19.922-27.028,33.203-48.511,33.203C146.184,134.723,126.888,121.453,119.149,101.539z M543.176,202.335l-1.537,20.039
	h-50.937l-1.537-20.039H543.176z M489.17,241.523h54.002l-4.228,54.76h-45.549L489.17,241.523z M177.234,296.283v-143.08
	c19.632-2.673,37.194-13.427,48.511-29.363c13.13,18.489,34.66,30.033,58.085,30.033c23.426,0,44.956-11.544,58.085-30.033
	c11.317,15.936,28.879,26.691,48.511,29.363v143.08H177.234L177.234,296.283z M400,134.724c-21.482,0-40.777-13.28-48.511-33.204
	V19.149h97.021v82.371C440.777,121.442,421.482,134.724,400,134.724z M516.17,134.724c-21.482,0-40.776-13.28-48.511-33.204V19.149
	h97.021v82.371C556.947,121.442,537.652,134.724,516.17,134.724z M680.852,101.541c-7.739,19.914-27.035,33.184-48.511,33.184
	c-21.483,0-40.777-13.28-48.511-33.204V19.149h97.021V101.541z"/>
<path d="M349.684,218.979c-6.066-11.564-18.264-19.197-31.626-19.197c-1.31,0-2.615,0.073-3.914,0.218
	c-6.384-10.32-17.699-16.814-30.314-16.814c-12.615,0-23.928,6.494-30.314,16.814c-1.298-0.146-2.604-0.218-3.914-0.218
	c-13.362,0-25.559,7.633-31.626,19.197c-12.319,2.598-21.593,13.552-21.593,26.632v21.946c0,5.288,4.287,9.575,9.574,9.575
	s9.575-4.287,9.575-9.575v-21.946c0-4.449,3.619-8.068,8.065-8.068c0.147,0.001,0.291,0.013,0.47,0.023
	c4.423,0.252,8.437-2.582,9.701-6.829c2.071-6.952,8.582-11.809,15.835-11.809c1.983,0,3.963,0.373,5.884,1.105
	c2.469,0.943,5.219,0.825,7.599-0.332c2.378-1.154,4.173-3.242,4.959-5.765c2.163-6.941,8.507-11.604,15.786-11.604
	c7.279,0,13.624,4.664,15.787,11.604c0.786,2.525,2.581,4.611,4.959,5.765c2.378,1.155,5.128,1.275,7.598,0.332
	c1.921-0.734,3.901-1.105,5.884-1.105c7.254,0,13.766,4.855,15.834,11.807c1.264,4.248,5.298,7.088,9.734,6.828
	c4.614-0.271,8.502,3.454,8.502,8.047v21.946c0,5.288,4.287,9.575,9.575,9.575s9.574-4.287,9.574-9.575v-21.946
	C371.276,232.532,362.002,221.578,349.684,218.979z"/>
<circle style="fill:none;stroke:#000000;stroke-width:20;stroke-miterlimit:10;stroke-dasharray:12;" cx="283.829" cy="479.279" r="61.25"/>
</svg>
