<?xml version="1.0" encoding="iso-8859-1"?>
<!-- Generator: Adobe Illustrator 16.0.0, SVG Export Plug-In . SVG Version: 6.00 Build 0)  -->
<!DOCTYPE svg PUBLIC "-//W3C//DTD SVG 1.1//EN" "http://www.w3.org/Graphics/SVG/1.1/DTD/svg11.dtd">
<svg version="1.1" id="Capa_1" xmlns="http://www.w3.org/2000/svg" xmlns:xlink="http://www.w3.org/1999/xlink" x="0px" y="0px"
	 width="800px" height="600px" viewBox="0 0 800 600" style="enable-background:new 0 0 800 600;" xml:space="preserve">
<g>
	<path d="M234.545,174.546c30,0,53.637-24.545,53.637-53.637c0-30-24.545-53.637-53.637-53.637c-30,0-53.637,24.545-53.637,53.637
		C180.908,150.001,205.455,174.546,234.545,174.546z M234.545,84.546c20,0,35.455,16.364,35.455,35.455
		s-16.364,35.455-35.455,35.455c-19.091,0-35.454-16.365-35.454-35.456C199.091,100.909,215.455,84.546,234.545,84.546z"/>
	<path d="M429.092,287.272h-1.818c1.818-1.818,2.728-3.637,2.728-6.364c0-5.455-3.637-9.09-9.091-9.09h-21.818
		c7.271-16.364,7.271-36.364-0.909-52.728c-3.637-8.181-10-15.455-17.273-20.909c0-0.909,0-2.728,0-3.637
		c0-14.545-11.818-26.363-26.363-26.363c-14.545,0-26.363,11.818-26.363,26.363s11.818,26.363,26.363,26.363
		c6.364,0,11.818-2.728,16.364-6.364c4.546,3.637,7.272,8.181,10,12.727c6.364,13.636,5.455,29.091-1.818,41.818l-1.818,1.818
		h-32.728c-5.455,0-9.09,3.637-9.09,9.09c0,2.728,0.909,5.455,2.728,6.364H320.91v-55.454c0-30-21.819-54.546-49.091-54.546h-76.364
		c-27.272,0-49.091,24.545-49.091,54.546v55.454H110c-5.455,0-9.09,3.637-9.09,9.09v41.817c0,5.455,3.637,9.091,9.09,9.091h13.636
		v213.637c0,5.454,3.637,9.09,9.09,9.09H399.09c5.455,0,9.091-3.637,9.091-9.09V347.273h19.091c5.455,0,9.091-3.637,9.091-9.091
		v-41.817C438.182,290.909,433.636,287.272,429.092,287.272z M354.546,201.818c-4.545,0-8.181-3.637-8.181-8.181
		c0-4.545,3.637-8.181,8.181-8.181c4.545,0,8.182,3.636,8.182,8.181C362.728,198.182,359.091,201.818,354.546,201.818z
		 M166.364,231.818c0-20,13.636-36.364,30.909-36.364h75.455c17.273,0,30.909,16.364,30.909,36.364v55.454H166.364V231.818z
		 M391.818,551.818H143.636V347.273h248.182V551.818z M420,329.092c-292.728,0-175.455,0-299.092,0v-23.637H420V329.092z"/>
	<path d="M426.364,581.818H109.09c-5.455,0-9.09,3.637-9.09,9.09c0,5.454,3.637,9.091,9.09,9.091h317.272
		c5.455,0,9.091-3.637,9.091-9.091C435.453,585.455,431.818,581.818,426.364,581.818z"/>
</g>
<path d="M690.909,30.909h-72.727V9.09c0-5.455-3.637-9.09-9.091-9.09H400.91c-5.456,0-9.091,3.637-9.091,9.09v107.273
	c0,5.455,3.637,9.09,9.091,9.09h20l-18.182,41.818c-1.818,3.637-0.909,8.181,2.727,10.909c2.728,2.728,7.272,2.728,10.909,0.909
	l85.454-52.728H530v25.454c0,5.455,3.637,9.091,9.09,9.091h151.818c5.455,0,9.091-3.637,9.091-9.091V40
	C700,34.546,696.363,30.909,690.909,30.909z M499.091,107.272c-1.818,0-3.637,0.909-4.546,1.818l-62.728,39.09L443.636,120
	c0.909-2.728,0.909-6.364-0.909-8.182c-1.818-1.817-4.546-4.546-7.272-4.546h-24.545v-89.09H600v89.09H499.091z M681.818,141.818
	H547.272v-16.364h61.818c5.455,0,9.091-3.637,9.091-9.09V49.091h63.637V141.818z"/>
</svg>
