<?xml version="1.0" encoding="iso-8859-1"?>
<!-- Generator: Adobe Illustrator 16.0.0, SVG Export Plug-In . SVG Version: 6.00 Build 0)  -->
<!DOCTYPE svg PUBLIC "-//W3C//DTD SVG 1.1//EN" "http://www.w3.org/Graphics/SVG/1.1/DTD/svg11.dtd">
<svg version="1.1" id="Layer_1" xmlns="http://www.w3.org/2000/svg" xmlns:xlink="http://www.w3.org/1999/xlink" x="0px" y="0px"
	 width="170.88px" height="225.02px" viewBox="0 0 170.88 225.02" style="enable-background:new 0 0 170.88 225.02;"
	 xml:space="preserve">
<g>
	<defs>
		<rect id="SVGID_1_" y="1.5" width="170.88" height="171.25"/>
	</defs>
	<clipPath id="SVGID_2_">
		<use xlink:href="#SVGID_1_"  style="overflow:visible;"/>
	</clipPath>
	<path style="clip-path:url(#SVGID_2_);" d="M158.83,69.457h-1.41c-1.887-8.496-5.242-16.445-9.785-23.562l1.016-1.02
		c4.711-4.711,4.711-12.351,0-17.062l-5.566-5.563c-4.711-4.715-12.348-4.715-17.062,0l-1.016,1.016
		c-3.648-2.332-7.52-4.344-11.566-6.012c-3.848-1.586-7.855-2.855-12-3.777v-1.41C101.439,5.403,96.041,0,89.377,0h-7.872
		c-6.664,0-12.066,5.403-12.066,12.067v1.41c-4.141,0.922-8.148,2.191-12,3.777c-4.047,1.668-7.914,3.68-11.562,6.012l-1.02-1.016
		c-4.711-4.715-12.352-4.715-17.063,0l-5.562,5.563c-4.715,4.715-4.715,12.351,0,17.062l1.016,1.02
		c-4.547,7.117-7.899,15.07-9.789,23.566h-1.411c-6.664,0-12.066,5.399-12.066,12.063v7.871c0,6.664,5.402,12.066,12.066,12.066
		h1.414c1.887,8.492,5.239,16.441,9.786,23.562l-1.02,1.016c-2.262,2.266-3.531,5.332-3.531,8.535c0,3.199,1.269,6.266,3.531,8.531
		l5.566,5.562c2.262,2.262,5.333,3.535,8.532,3.535c3.199,0,6.269-1.273,8.531-3.535l1.016-1.016
		c3.652,2.328,7.519,4.344,11.566,6.012c3.852,1.586,7.859,2.855,12,3.773v1.414c0,6.664,5.402,12.066,12.066,12.066h7.872
		c6.664,0,12.062-5.402,12.062-12.066v-1.414c4.145-0.918,8.152-2.188,12-3.773c4.047-1.668,7.918-3.684,11.566-6.012l1.016,1.016
		c4.715,4.711,12.352,4.711,17.066,0l5.562-5.562c4.711-4.715,4.711-12.352,0-17.066l-1.016-1.016
		c4.543-7.117,7.898-15.07,9.785-23.562h1.41c6.664,0,12.066-5.402,12.066-12.066v-7.871
		C170.896,74.86,165.494,69.457,158.83,69.457L158.83,69.457z M127.201,119.219L99.924,91.938h38.844
		C137.529,102.195,133.396,111.57,127.201,119.219L127.201,119.219z M43.677,119.219c-6.195-7.648-10.328-17.023-11.566-27.281
		h38.844L43.677,119.219z M43.252,52.238l27.703,27.7H31.986C33.052,69.543,37.104,60.028,43.252,52.238L43.252,52.238z
		 M127.627,52.238c6.148,7.79,10.199,17.309,11.262,27.7H99.924L127.627,52.238z M119.197,43.696L91.439,71.453V32.071
		C101.885,33.235,111.428,37.406,119.197,43.696L119.197,43.696z M79.439,32.067v39.386L51.682,43.696
		C59.447,37.403,68.995,33.235,79.439,32.067L79.439,32.067z M52.22,127.645l27.219-27.219v38.422
		C69.232,137.707,59.888,133.695,52.22,127.645L52.22,127.645z M91.439,138.848v-38.422l27.219,27.219
		C110.99,133.695,101.646,137.707,91.439,138.848L91.439,138.848z M91.439,138.848"/>
</g>
<path d="M113.924,166.32c-0.63,0.223-1.262,0.438-1.895,0.645c-1.902,5.293-5.605,9.727-10.371,12.57l10.551,29.484H58.67
	l10.55-29.488c-4.765-2.84-8.468-7.273-10.371-12.566c-0.633-0.207-1.265-0.422-1.894-0.645l-17.176,48.004
	c-0.879,2.453-0.508,5.176,0.992,7.305c1.496,2.125,3.938,3.391,6.539,3.391h76.258c2.602,0,5.043-1.266,6.539-3.391
	c1.5-2.129,1.871-4.852,0.992-7.305L113.924,166.32z M113.924,166.32"/>
</svg>
